# Blender 5.0.1
# www.blender.org
mtllib human male uvs.mtl
o Cube
v -0.243515 0.013487 0.195081
v -0.277360 0.206812 0.209004
v -0.194330 0.005366 -0.148258
v -0.196252 0.207646 -0.101377
v 0.000000 -0.018959 -0.226298
v 0.000000 0.211387 -0.152382
v 0.000000 -0.003208 0.257915
v 0.000000 0.220357 0.244789
v -0.326466 0.014373 -0.040981
v -0.335358 0.202725 -0.037806
v -0.288021 -0.158225 -0.049208
v -0.185694 -0.144232 0.137992
v 0.000000 -0.224169 -0.211947
v -0.160604 -0.208166 -0.148745
v 0.000000 -0.145535 0.236460
v -0.299903 0.324657 0.030073
v -0.184951 0.317130 -0.016593
v 0.000760 0.371579 0.203065
v -0.271827 0.336450 0.154466
v 0.000760 0.306462 -0.063562
v -0.251689 -0.275092 -0.020646
v -0.171692 -0.257440 0.119146
v 0.000000 -0.342219 -0.191291
v -0.138423 -0.326154 -0.123961
v 0.000000 -0.261236 0.202202
v -0.242458 -0.374766 -0.006845
v -0.160868 -0.370952 0.120688
v 0.000000 -0.434205 -0.191638
v -0.152982 -0.415896 -0.126064
v 0.000000 -0.361460 0.180839
v -0.252330 -0.482572 -0.000888
v -0.160868 -0.469728 0.138047
v 0.000000 -0.540399 -0.201932
v -0.156741 -0.513585 -0.109539
v 0.000000 -0.462840 0.178798
v -0.271425 -0.585975 0.001072
v -0.163745 -0.614773 0.160773
v 0.000000 -0.632967 -0.191860
v -0.155187 -0.625426 -0.097178
v 0.000000 -0.548256 0.229385
v 0.000000 -0.847867 -0.165521
v -0.056845 -0.841685 -0.110184
v -0.096460 -0.692294 0.213699
v 0.000000 -0.628484 0.250406
v 0.000000 -0.860573 0.212766
v -0.024019 -0.910391 0.041908
v -0.081148 -0.834846 0.227413
v 0.000000 -0.765400 0.260141
v -0.096892 -0.719830 -0.152550
v 0.000000 -0.785426 -0.195329
v -0.298947 -2.180698 0.105894
v -0.260276 -2.176041 0.157614
v -0.300600 -2.190356 0.030247
v -0.207177 -2.181688 0.002409
v -0.226038 -2.181852 0.168316
v -0.193753 -2.182476 0.102418
v -0.198989 -2.186196 0.156561
v -0.252997 -2.172326 0.012549
v -0.129690 -1.488501 0.050172
v -0.170728 -1.468795 0.128913
v -0.211650 -1.490539 -0.051770
v -0.160757 -1.496628 -0.028197
v -0.309350 -1.466721 0.036443
v -0.260901 -1.476761 -0.024918
v -0.224930 -1.455687 0.147910
v -0.273537 -1.449932 0.118158
v -0.057033 -1.231602 0.032670
v -0.177672 -1.159151 -0.137777
v -0.340849 -1.083999 -0.002501
v -0.127233 -1.197828 0.143450
v -0.098611 -1.209109 -0.118313
v -0.271605 -1.115954 -0.080694
v -0.204014 -1.129452 0.177040
v -0.288056 -1.100230 0.103959
v -0.032892 -1.023463 -0.005851
v -0.140975 -0.905345 -0.156160
v -0.313073 -0.766470 -0.017859
v -0.087901 -0.965096 0.155504
v -0.075133 -0.981200 -0.145628
v -0.214833 -0.812671 -0.103500
v -0.149966 -0.873509 0.195097
v -0.229051 -0.807477 0.137215
v -0.157627 -1.417567 0.128113
v -0.148287 -1.438755 -0.049615
v -0.265060 -1.418505 -0.048443
v -0.220909 -1.398768 0.142658
v -0.274244 -1.387910 0.105256
v -0.115742 -1.435609 0.033014
v -0.205700 -1.429748 -0.077029
v -0.326425 -1.395741 0.024108
v -0.177753 -1.698853 0.201454
v -0.172033 -1.785998 0.051443
v -0.286766 -1.761320 0.045216
v -0.242351 -1.692230 0.226212
v -0.300626 -1.714060 0.190392
v -0.123327 -1.722482 0.133867
v -0.228315 -1.779908 0.021319
v -0.319435 -1.744374 0.116583
v -0.140861 -1.532450 0.071668
v -0.215704 -1.535399 -0.012149
v -0.300965 -1.514063 0.063645
v -0.176467 -1.508745 0.150885
v -0.174120 -1.540142 0.007736
v -0.260252 -1.524468 0.008851
v -0.229520 -1.501732 0.173670
v -0.269232 -1.506483 0.145340
v -0.206586 -2.151550 0.142306
v -0.223509 -2.153841 0.061056
v -0.272244 -2.144439 0.066169
v -0.234105 -2.150411 0.155647
v -0.265425 -2.145860 0.145589
v -0.197460 -2.150530 0.102844
v -0.249833 -2.148286 0.052022
v -0.284513 -2.147698 0.106091
v -0.302519 -2.254233 0.111346
v -0.257865 -2.253739 0.162139
v -0.217657 -2.253552 0.172624
v -0.189689 -2.255918 0.102256
v -0.192546 -2.254292 0.161564
v -0.324531 -2.255883 0.037406
v -0.198560 -2.259506 0.029792
v -0.375906 -2.232670 -0.164901
v -0.221503 -2.222586 -0.231025
v -0.325198 -2.217853 -0.241437
v -0.375067 -2.264187 -0.166357
v -0.221048 -2.265278 -0.234526
v -0.326057 -2.264302 -0.243359
v -0.266959 0.089707 0.211595
v -0.195075 0.109149 -0.123475
v 0.000000 0.106770 0.257666
v 0.000000 0.107129 -0.202400
v -0.329119 0.085703 -0.038525
v -0.838359 -0.547314 0.034954
v -0.855998 -0.537155 0.058398
v -0.849140 -0.521242 -0.033929
v -0.874037 -0.514604 0.053295
v -0.877467 -0.500738 0.014081
v -0.837150 -0.540323 -0.003080
v -0.388391 0.276997 0.153798
v -0.380188 0.142798 0.203878
v -0.337837 0.051144 0.012617
v -0.379733 0.155300 -0.031266
v -0.328981 0.052912 0.152302
v -0.389598 0.273881 0.040577
v -0.502699 0.131214 0.140965
v -0.368377 0.001866 0.024441
v -0.443098 0.040812 0.189908
v -0.421010 0.079959 -0.026248
v -0.378841 -0.014488 0.137694
v -0.478887 0.133896 0.037367
v -0.654211 -0.157709 0.102616
v -0.536869 -0.223407 0.037870
v -0.610244 -0.212581 0.128665
v -0.574534 -0.186268 -0.016061
v -0.560706 -0.233761 0.104060
v -0.632846 -0.148663 0.026305
v -0.516697 -0.083475 0.175683
v -0.485549 -0.038700 -0.036001
v -0.439910 -0.106720 0.132478
v -0.558663 0.004848 0.025366
v -0.588137 -0.006656 0.136864
v -0.426190 -0.088284 0.030498
v -0.760174 -0.295553 0.079271
v -0.636853 -0.354911 0.011192
v -0.723505 -0.351743 0.108054
v -0.690328 -0.314482 -0.025620
v -0.664373 -0.376398 0.091596
v -0.743007 -0.276619 0.008108
v -0.647374 -0.138609 0.106636
v -0.524217 -0.208902 0.037180
v -0.590289 -0.196806 0.131429
v -0.563904 -0.169440 -0.018170
v -0.547432 -0.220014 0.107374
v -0.625104 -0.129297 0.026342
v -0.623188 -0.229258 0.129764
v -0.585441 -0.200296 -0.021627
v -0.571030 -0.251767 0.104390
v -0.646890 -0.161223 0.022816
v -0.669467 -0.171423 0.102667
v -0.545732 -0.239342 0.033543
v -0.394158 0.120629 0.203039
v -0.387789 0.140465 -0.030396
v -0.338710 0.039510 0.149487
v -0.406231 0.254229 0.039892
v -0.414009 0.242857 0.153091
v -0.343583 0.041492 0.014988
v -0.359079 0.156404 0.205846
v -0.367095 0.165267 -0.035792
v -0.313665 0.065761 0.158609
v -0.355592 0.305974 0.036388
v -0.348246 0.311050 0.154506
v -0.329677 0.063110 -0.000097
v -0.071894 0.379141 0.007780
v -0.188560 0.370662 0.088962
v 0.000760 0.352777 -0.028109
v -0.111014 0.398935 0.070647
v 0.000000 0.416621 0.181771
v -0.076639 0.405867 0.158813
v -0.164302 0.354504 0.183537
v 0.000760 0.437217 -0.030625
v -0.068077 0.444521 0.010536
v 0.000000 0.478859 0.162112
v -0.099622 0.455044 0.061378
v -0.076639 0.467222 0.132619
v -0.952596 -0.663052 -0.044632
v -0.979893 -0.659344 0.110368
v -0.981106 -0.644039 0.027603
v -1.001541 -0.757064 -0.035668
v -1.020350 -0.741297 0.082991
v -1.034436 -0.765153 0.023344
v -0.936133 -0.663935 0.031002
v -0.954451 -0.668361 0.104324
v -0.919228 -0.661910 -0.024021
v -1.001218 -0.776061 0.031767
v -1.004948 -0.757844 0.082114
v -0.971761 -0.761859 -0.031993
v -0.862388 -0.495522 0.053326
v -0.810492 -0.531509 -0.003607
v -0.834426 -0.526103 0.054741
v -0.839374 -0.496660 -0.018110
v -0.814440 -0.538153 0.038840
v -0.863445 -0.482546 0.014038
v -0.873907 -0.594878 -0.001653
v -0.883709 -0.579222 -0.035190
v -0.866667 -0.647099 -0.060214
v -0.858066 -0.646675 -0.035926
v -0.884652 -0.648076 -0.022291
v -0.894207 -0.651597 -0.046025
v -0.892406 -0.703453 -0.043685
v -0.885942 -0.698299 -0.023935
v -0.902884 -0.683928 -0.012869
v -0.910955 -0.690876 -0.037367
v -0.096473 0.835625 0.107691
v -0.092095 0.460247 -0.079647
v -0.089257 0.840181 -0.083220
v -0.117614 0.473991 0.034732
v -0.117614 0.663930 0.158376
v -0.108593 0.855752 0.012346
v -0.118067 0.635082 -0.125459
v 0.000546 0.434397 -0.088950
v 0.000000 0.849691 -0.102593
v 0.000000 0.861663 0.126731
v -0.161979 0.650756 0.011552
v 0.000000 0.623054 -0.191691
v 0.000000 0.674598 0.197894
v 0.000000 0.884721 0.017357
v -0.082813 0.510890 0.134116
v 0.000000 0.528806 0.163111
v -0.110011 0.541324 -0.097560
v -0.101955 0.494471 -0.091310
v -0.132402 0.532913 0.027005
v -0.147191 0.575598 0.019279
v 0.000417 0.458798 -0.138231
v 0.000289 0.531905 -0.151430
v 0.000000 0.575599 0.177110
v 0.000000 0.624196 0.187502
v -0.106013 0.611112 0.151492
v -0.094413 0.560099 0.144608
v -0.112328 0.698284 0.161039
v -0.107043 0.748875 0.152878
v -0.101758 0.795859 0.137501
v -0.101871 0.788937 -0.115429
v -0.107270 0.744868 -0.122380
v -0.112668 0.691779 -0.125724
v -0.135921 0.803601 0.011696
v -0.148817 0.758666 0.011047
v -0.156300 0.701103 0.012201
v 0.000000 0.794119 -0.144261
v 0.000000 0.749125 -0.151652
v 0.000000 0.686089 -0.169867
v 0.000000 0.811288 0.169328
v 0.000000 0.775346 0.186667
v 0.000000 0.714148 0.196791
v -0.154585 0.612275 0.017219
v 0.000225 0.575675 -0.157128
v 0.000000 0.649397 0.192698
v -0.114039 0.584595 -0.110608
v -0.111813 0.637521 0.154934
v 0.243515 0.013487 0.195081
v 0.277360 0.206812 0.209004
v 0.194330 0.005366 -0.148258
v 0.196252 0.207646 -0.101377
v 0.326466 0.014373 -0.040981
v 0.335358 0.202725 -0.037806
v 0.288021 -0.158225 -0.049208
v 0.185694 -0.144232 0.137992
v 0.160604 -0.208166 -0.148745
v 0.299903 0.324657 0.030073
v 0.184951 0.317130 -0.016593
v -0.000760 0.371579 0.203065
v 0.271827 0.336450 0.154466
v -0.000760 0.306462 -0.063562
v 0.251689 -0.275092 -0.020646
v 0.171692 -0.257440 0.119146
v 0.138423 -0.326154 -0.123961
v 0.242458 -0.374766 -0.006845
v 0.160868 -0.370952 0.120688
v 0.152982 -0.415896 -0.126064
v 0.252330 -0.482572 -0.000888
v 0.160868 -0.469728 0.138047
v 0.156741 -0.513585 -0.109539
v 0.271425 -0.585975 0.001072
v 0.163745 -0.614773 0.160773
v 0.155187 -0.625426 -0.097178
v 0.056845 -0.841685 -0.110184
v 0.096460 -0.692294 0.213699
v 0.024019 -0.910391 0.041908
v 0.081148 -0.834846 0.227413
v 0.096892 -0.719830 -0.152550
v 0.298947 -2.180698 0.105894
v 0.260276 -2.176041 0.157614
v 0.300600 -2.190356 0.030247
v 0.207177 -2.181688 0.002409
v 0.226038 -2.181852 0.168316
v 0.193753 -2.182476 0.102418
v 0.198989 -2.186196 0.156561
v 0.252997 -2.172326 0.012549
v 0.129690 -1.488501 0.050172
v 0.170728 -1.468795 0.128913
v 0.211650 -1.490539 -0.051770
v 0.160757 -1.496628 -0.028197
v 0.309350 -1.466721 0.036443
v 0.260901 -1.476761 -0.024918
v 0.224930 -1.455687 0.147910
v 0.273537 -1.449932 0.118158
v 0.057033 -1.231602 0.032670
v 0.177672 -1.159151 -0.137777
v 0.340849 -1.083999 -0.002501
v 0.127233 -1.197828 0.143450
v 0.098611 -1.209109 -0.118313
v 0.271605 -1.115954 -0.080694
v 0.204014 -1.129452 0.177040
v 0.288056 -1.100230 0.103959
v 0.032892 -1.023463 -0.005851
v 0.140975 -0.905345 -0.156160
v 0.313073 -0.766470 -0.017859
v 0.087901 -0.965096 0.155504
v 0.075133 -0.981200 -0.145628
v 0.214833 -0.812671 -0.103500
v 0.149966 -0.873509 0.195097
v 0.229051 -0.807477 0.137215
v 0.157627 -1.417567 0.128113
v 0.148287 -1.438755 -0.049615
v 0.265060 -1.418505 -0.048443
v 0.220909 -1.398768 0.142658
v 0.274244 -1.387910 0.105256
v 0.115742 -1.435609 0.033014
v 0.205700 -1.429748 -0.077029
v 0.326425 -1.395741 0.024108
v 0.177753 -1.698853 0.201454
v 0.172033 -1.785998 0.051443
v 0.286766 -1.761320 0.045216
v 0.242351 -1.692230 0.226212
v 0.300626 -1.714060 0.190392
v 0.123327 -1.722482 0.133867
v 0.228315 -1.779908 0.021319
v 0.319435 -1.744374 0.116583
v 0.140861 -1.532450 0.071668
v 0.215704 -1.535399 -0.012149
v 0.300965 -1.514063 0.063645
v 0.176467 -1.508745 0.150885
v 0.174120 -1.540142 0.007736
v 0.260252 -1.524468 0.008851
v 0.229520 -1.501732 0.173670
v 0.269232 -1.506483 0.145340
v 0.206586 -2.151550 0.142306
v 0.223509 -2.153841 0.061056
v 0.272244 -2.144439 0.066169
v 0.234105 -2.150411 0.155647
v 0.265425 -2.145860 0.145589
v 0.197460 -2.150530 0.102844
v 0.249833 -2.148286 0.052022
v 0.284513 -2.147698 0.106091
v 0.302519 -2.254233 0.111346
v 0.257865 -2.253739 0.162139
v 0.217657 -2.253552 0.172624
v 0.189689 -2.255918 0.102256
v 0.192546 -2.254292 0.161564
v 0.324531 -2.255883 0.037406
v 0.198560 -2.259506 0.029792
v 0.375906 -2.232670 -0.164901
v 0.221503 -2.222586 -0.231025
v 0.325198 -2.217853 -0.241437
v 0.375067 -2.264187 -0.166357
v 0.221048 -2.265278 -0.234526
v 0.326057 -2.264302 -0.243359
v 0.266959 0.089707 0.211595
v 0.195075 0.109149 -0.123475
v 0.329119 0.085703 -0.038525
v 0.838359 -0.547314 0.034954
v 0.855998 -0.537155 0.058398
v 0.849140 -0.521242 -0.033929
v 0.874037 -0.514604 0.053295
v 0.877467 -0.500738 0.014081
v 0.837150 -0.540323 -0.003080
v 0.388391 0.276997 0.153798
v 0.380188 0.142798 0.203878
v 0.337837 0.051144 0.012617
v 0.379733 0.155300 -0.031266
v 0.328981 0.052912 0.152302
v 0.389598 0.273881 0.040577
v 0.502699 0.131214 0.140965
v 0.368377 0.001866 0.024441
v 0.443098 0.040812 0.189908
v 0.421010 0.079959 -0.026248
v 0.378841 -0.014488 0.137694
v 0.478887 0.133896 0.037367
v 0.654211 -0.157709 0.102616
v 0.536869 -0.223407 0.037870
v 0.610244 -0.212581 0.128665
v 0.574534 -0.186268 -0.016061
v 0.560706 -0.233761 0.104060
v 0.632846 -0.148663 0.026305
v 0.516697 -0.083475 0.175683
v 0.485549 -0.038700 -0.036001
v 0.439910 -0.106720 0.132478
v 0.558663 0.004848 0.025366
v 0.588137 -0.006656 0.136864
v 0.426190 -0.088284 0.030498
v 0.760174 -0.295553 0.079271
v 0.636853 -0.354911 0.011192
v 0.723505 -0.351743 0.108054
v 0.690328 -0.314482 -0.025620
v 0.664373 -0.376398 0.091596
v 0.743007 -0.276619 0.008108
v 0.647374 -0.138609 0.106636
v 0.524217 -0.208902 0.037180
v 0.590289 -0.196806 0.131429
v 0.563904 -0.169440 -0.018170
v 0.547432 -0.220014 0.107374
v 0.625104 -0.129297 0.026342
v 0.623188 -0.229258 0.129764
v 0.585441 -0.200296 -0.021627
v 0.571030 -0.251767 0.104390
v 0.646890 -0.161223 0.022816
v 0.669467 -0.171423 0.102667
v 0.545732 -0.239342 0.033543
v 0.394158 0.120629 0.203039
v 0.387789 0.140465 -0.030396
v 0.338710 0.039510 0.149487
v 0.406231 0.254229 0.039892
v 0.414009 0.242857 0.153091
v 0.343583 0.041492 0.014988
v 0.359079 0.156404 0.205846
v 0.367095 0.165267 -0.035792
v 0.313665 0.065761 0.158609
v 0.355592 0.305974 0.036388
v 0.348246 0.311050 0.154506
v 0.329677 0.063110 -0.000097
v 0.071894 0.379141 0.007780
v 0.188560 0.370662 0.088962
v -0.000760 0.352777 -0.028109
v 0.111014 0.398935 0.070647
v 0.076639 0.405867 0.158813
v 0.164302 0.354504 0.183537
v -0.000760 0.437217 -0.030625
v 0.068077 0.444521 0.010536
v 0.099622 0.455044 0.061378
v 0.076639 0.467222 0.132619
v 0.952596 -0.663052 -0.044632
v 0.979893 -0.659344 0.110368
v 0.981106 -0.644039 0.027603
v 1.001541 -0.757064 -0.035668
v 1.020350 -0.741297 0.082991
v 1.034436 -0.765153 0.023344
v 0.936133 -0.663935 0.031002
v 0.954451 -0.668361 0.104324
v 0.919228 -0.661910 -0.024021
v 1.001218 -0.776061 0.031767
v 1.004948 -0.757844 0.082114
v 0.971761 -0.761859 -0.031993
v 0.862388 -0.495522 0.053326
v 0.810492 -0.531509 -0.003607
v 0.834426 -0.526103 0.054741
v 0.839374 -0.496660 -0.018110
v 0.814440 -0.538153 0.038840
v 0.863445 -0.482546 0.014038
v 0.873907 -0.594878 -0.001653
v 0.883709 -0.579222 -0.035190
v 0.866667 -0.647099 -0.060214
v 0.858066 -0.646675 -0.035926
v 0.884652 -0.648076 -0.022291
v 0.894207 -0.651597 -0.046025
v 0.892406 -0.703453 -0.043685
v 0.885942 -0.698299 -0.023935
v 0.902884 -0.683928 -0.012869
v 0.910955 -0.690876 -0.037367
v 0.096473 0.835625 0.107691
v 0.092095 0.460247 -0.079647
v 0.089257 0.840181 -0.083220
v 0.117614 0.473991 0.034732
v 0.117614 0.663930 0.158376
v 0.108593 0.855752 0.012346
v 0.118067 0.635082 -0.125459
v -0.000546 0.434397 -0.088950
v 0.161979 0.650756 0.011552
v 0.082813 0.510890 0.134116
v 0.110011 0.541324 -0.097560
v 0.101955 0.494471 -0.091310
v 0.132402 0.532913 0.027005
v 0.147191 0.575598 0.019279
v -0.000417 0.458798 -0.138231
v -0.000289 0.531905 -0.151430
v 0.106013 0.611112 0.151492
v 0.094413 0.560099 0.144608
v 0.112328 0.698284 0.161039
v 0.107043 0.748875 0.152878
v 0.101758 0.795859 0.137501
v 0.101871 0.788937 -0.115429
v 0.107270 0.744868 -0.122380
v 0.112668 0.691779 -0.125724
v 0.135921 0.803601 0.011696
v 0.148817 0.758666 0.011047
v 0.156300 0.701103 0.012201
v 0.154585 0.612275 0.017219
v -0.000225 0.575675 -0.157128
v 0.114039 0.584595 -0.110608
v 0.111813 0.637521 0.154934
vn -0.6501 -0.2502 0.7175
vn -0.1940 0.1633 0.9673
vn -0.4980 0.0396 -0.8663
vn -0.3334 0.4100 -0.8490
vn -0.0000 0.0591 -0.9982
vn -0.0000 0.4915 -0.8709
vn -0.0000 -0.2186 0.9758
vn -0.0000 0.1753 0.9845
vn -0.9492 -0.1572 -0.2726
vn -0.4345 0.3318 -0.8373
vn -0.9351 -0.2693 -0.2303
vn -0.6602 -0.2763 0.6984
vn -0.0000 -0.1500 -0.9887
vn -0.5361 -0.1835 -0.8240
vn -0.0000 -0.2898 0.9571
vn -0.3422 0.8281 -0.4441
vn -0.2798 0.7295 -0.6241
vn -0.1766 0.4264 0.8871
vn -0.2861 0.8153 0.5034
vn -0.1728 0.6254 -0.7609
vn -0.9777 -0.1928 -0.0839
vn -0.6740 -0.1451 0.7244
vn -0.0000 -0.0851 -0.9964
vn -0.5744 -0.1181 -0.8100
vn -0.0000 -0.1876 0.9822
vn -0.9981 0.0053 -0.0617
vn -0.6344 0.0083 0.7729
vn -0.0000 0.0118 -0.9999
vn -0.6108 -0.0027 -0.7917
vn -0.0000 -0.0227 0.9997
vn -0.9949 0.0706 -0.0722
vn -0.6119 0.1561 0.7754
vn -0.0000 -0.0709 -0.9975
vn -0.6232 -0.0295 -0.7815
vn -0.0000 0.1935 0.9811
vn -0.9792 0.1704 -0.1103
vn -0.6362 0.1825 0.7496
vn -0.0000 0.0055 -1.0000
vn -0.5676 0.0704 -0.8203
vn -0.0000 0.2776 0.9607
vn -0.0000 -0.7035 -0.7107
vn 0.5279 -0.4139 -0.7416
vn -0.4624 0.0911 0.8820
vn -0.0000 0.1761 0.9844
vn -0.0000 -0.8661 0.4999
vn 0.8735 -0.4835 0.0569
vn -0.1637 -0.4197 0.8928
vn -0.0000 -0.2131 0.9770
vn -0.4234 0.0455 -0.9048
vn -0.0000 -0.2879 -0.9577
vn -0.9167 0.2688 0.2957
vn -0.5373 0.1776 0.8245
vn -0.7988 0.6005 -0.0356
vn 0.7473 0.6180 -0.2442
vn 0.0916 0.2328 0.9682
vn 0.9752 0.2188 -0.0349
vn 0.7838 0.2173 0.5817
vn -0.1180 0.9379 -0.3262
vn 0.9638 -0.2626 0.0465
vn 0.6941 0.0751 0.7159
vn -0.0977 -0.5093 -0.8550
vn 0.6146 -0.4964 -0.6131
vn -0.9705 -0.2107 -0.1171
vn -0.6339 -0.3905 -0.6676
vn -0.1012 0.2758 0.9559
vn -0.7609 0.1379 0.6340
vn 0.9734 -0.2003 0.1112
vn -0.2038 -0.1181 -0.9719
vn -0.9910 0.0276 -0.1307
vn 0.6203 -0.1428 0.7713
vn 0.6337 -0.2407 -0.7352
vn -0.6411 -0.0300 -0.7668
vn -0.1921 -0.0668 0.9791
vn -0.7713 0.0285 0.6358
vn 0.9923 -0.1231 0.0095
vn -0.0937 0.0278 -0.9952
vn -0.9638 0.1902 -0.1871
vn 0.6612 -0.1934 0.7248
vn 0.6513 -0.0869 -0.7538
vn -0.5743 0.1214 -0.8096
vn -0.3892 -0.0618 0.9191
vn -0.7305 0.1091 0.6742
vn 0.6233 -0.1253 0.7719
vn 0.6480 -0.3511 -0.6759
vn -0.6452 -0.2079 -0.7352
vn -0.1795 -0.0046 0.9837
vn -0.7576 0.0053 0.6527
vn 0.9627 -0.2660 0.0497
vn -0.1289 -0.2970 -0.9462
vn -0.9892 -0.1183 -0.0865
vn 0.6435 0.0400 0.7644
vn 0.7037 -0.1187 -0.7005
vn -0.7179 -0.0623 -0.6933
vn -0.0867 0.0853 0.9926
vn -0.7720 0.0455 0.6340
vn 0.9956 -0.0470 0.0805
vn -0.0007 -0.1089 -0.9941
vn -0.9992 -0.0113 -0.0372
vn 0.9967 -0.0693 0.0426
vn -0.0758 -0.4272 -0.9010
vn -0.9972 -0.0293 -0.0687
vn 0.6587 0.2411 0.7128
vn 0.6748 -0.3599 -0.6443
vn -0.6782 -0.2825 -0.6784
vn -0.0846 0.3611 0.9287
vn -0.7610 0.2534 0.5972
vn 0.7506 0.1012 0.6530
vn 0.7140 0.3966 -0.5770
vn -0.7748 0.3281 -0.5404
vn 0.0193 0.1407 0.9899
vn -0.7061 0.0647 0.7051
vn 0.9934 0.1126 -0.0206
vn -0.0773 0.5116 -0.8557
vn -0.9783 0.1726 0.1148
vn -0.7207 -0.6045 0.3394
vn -0.4218 -0.6211 0.6606
vn 0.0718 -0.5920 0.8027
vn 0.7455 -0.6665 -0.0005
vn 0.6709 -0.5617 0.4840
vn -0.7702 -0.6092 0.1889
vn 0.7128 -0.6993 -0.0529
vn -0.8397 0.5292 -0.1218
vn 0.6036 0.5360 -0.5903
vn -0.3556 0.5971 -0.7190
vn -0.8137 -0.5671 -0.1274
vn 0.5770 -0.5648 -0.5900
vn -0.3558 -0.5851 -0.7288
vn -0.3534 -0.2244 0.9082
vn -0.4349 0.1790 -0.8825
vn -0.0000 -0.0234 0.9997
vn -0.0000 0.2657 -0.9640
vn -0.6989 -0.1661 -0.6956
vn 0.5868 -0.7612 0.2761
vn 0.3879 -0.2126 0.8969
vn 0.0374 0.2782 -0.9598
vn -0.4750 0.4863 0.7334
vn -0.7746 0.5972 -0.2082
vn 0.7853 -0.5451 -0.2934
vn -0.6269 0.5920 0.5065
vn -0.1448 -0.0049 0.9895
vn 0.5783 -0.6083 -0.5436
vn -0.3851 0.0594 -0.9210
vn 0.6150 -0.6035 0.5074
vn -0.6923 0.6059 -0.3919
vn -0.7723 0.4617 0.4363
vn 0.7337 -0.4925 -0.4681
vn -0.0352 -0.0925 0.9951
vn -0.0844 0.0286 -0.9960
vn 0.6993 -0.5281 0.4817
vn -0.7363 0.4823 -0.4746
vn -0.7029 0.4792 0.5257
vn 0.7957 -0.5456 -0.2629
vn -0.0117 -0.0480 0.9988
vn 0.1819 -0.0123 -0.9832
vn 0.6098 -0.5149 0.6026
vn -0.6520 0.5022 -0.5681
vn -0.0490 -0.1955 0.9795
vn 0.0136 -0.0443 -0.9989
vn 0.6510 -0.5692 0.5021
vn -0.7316 0.4194 -0.5374
vn -0.8050 0.3571 0.4737
vn 0.7375 -0.5373 -0.4093
vn -0.7575 0.3990 0.5167
vn 0.6916 -0.5621 -0.4536
vn -0.1197 -0.1469 0.9819
vn -0.0107 0.0302 -0.9995
vn 0.5513 -0.5930 0.5869
vn -0.6961 0.5120 -0.5033
vn -0.8509 0.2778 0.4459
vn 0.7025 -0.6195 -0.3504
vn -0.0480 -0.2606 0.9643
vn 0.0193 -0.1515 -0.9883
vn 0.5591 -0.6366 0.5312
vn -0.7593 0.3366 -0.5569
vn -0.0256 -0.0372 0.9990
vn 0.1927 0.0901 -0.9771
vn 0.6286 -0.4677 0.6214
vn -0.5706 0.6342 -0.5217
vn -0.6493 0.5495 0.5258
vn 0.8129 -0.4838 -0.3243
vn -0.0686 -0.0597 0.9959
vn -0.1620 0.0335 -0.9862
vn 0.6833 -0.5406 0.4908
vn -0.7390 0.5283 -0.4180
vn -0.7219 0.4967 0.4819
vn 0.6683 -0.5062 -0.5451
vn -0.1840 -0.0052 0.9829
vn -0.5045 0.0414 -0.8624
vn 0.4901 -0.7191 0.4926
vn -0.5172 0.7505 -0.4114
vn -0.4329 0.7404 0.5142
vn 0.3097 -0.7358 -0.6022
vn -0.4752 0.4242 -0.7709
vn -0.3268 0.9393 -0.1047
vn -0.2980 0.4025 -0.8656
vn -0.7412 0.6467 -0.1802
vn -0.0000 0.4688 0.8833
vn -0.4681 0.5783 0.6682
vn -0.2674 0.6568 0.7051
vn -0.4356 -0.7155 -0.5462
vn -0.6836 -0.5660 -0.4608
vn -0.0000 0.1406 0.9901
vn -0.9776 -0.1977 0.0720
vn -0.7285 0.0707 0.6814
vn -0.2537 0.1587 -0.9542
vn -0.5207 0.2913 0.8025
vn -0.8436 0.5090 -0.1712
vn -0.4830 -0.4031 -0.7773
vn -0.7322 -0.1848 0.6555
vn -0.9044 -0.4108 -0.1153
vn 0.8116 -0.5359 0.2327
vn 0.5141 -0.2817 0.8102
vn 0.7965 -0.4929 -0.3501
vn 0.2269 -0.9600 0.1643
vn 0.1983 -0.7660 0.6115
vn 0.5593 -0.6959 -0.4504
vn -0.6564 0.3602 0.6629
vn 0.5773 -0.6450 -0.5007
vn 0.0694 -0.3353 0.9396
vn -0.1306 0.1571 -0.9789
vn 0.4578 -0.7943 0.3994
vn -0.7756 0.5304 -0.3422
vn 0.6440 -0.6549 0.3955
vn -0.5762 0.2750 -0.7697
vn 0.3909 -0.1286 -0.9114
vn 0.9222 -0.3146 0.2249
vn -0.3392 0.0458 0.9396
vn -0.8403 0.2139 -0.4982
vn 0.0015 -0.8608 -0.5089
vn 0.4134 -0.7634 0.4963
vn -0.4667 -0.1064 0.8780
vn -0.9301 -0.3010 -0.2104
vn -0.5922 0.6895 0.4170
vn -0.5962 -0.7360 -0.3206
vn -0.5198 0.7190 -0.4613
vn -0.8617 -0.5001 0.0854
vn -0.7323 -0.0637 0.6780
vn -0.6408 0.7675 -0.0190
vn -0.7557 -0.0908 -0.6486
vn -0.3237 -0.8783 -0.3518
vn -0.0000 0.8141 -0.5807
vn -0.0000 0.8493 0.5279
vn -0.9992 -0.0382 -0.0128
vn -0.0000 -0.1463 -0.9892
vn -0.0000 -0.0916 0.9958
vn -0.0000 1.0000 -0.0059
vn -0.6704 -0.2060 0.7129
vn -0.0000 -0.1846 0.9828
vn -0.7740 -0.2340 -0.5884
vn -0.7599 -0.3625 -0.5396
vn -0.9584 -0.2679 0.0989
vn -0.9712 -0.2334 0.0485
vn -0.4418 -0.4545 -0.7734
vn -0.4327 -0.1914 -0.8810
vn -0.0000 -0.2369 0.9715
vn -0.0000 -0.2017 0.9795
vn -0.6697 -0.2293 0.7064
vn -0.6483 -0.2618 0.7149
vn -0.6940 0.1092 0.7117
vn -0.7009 0.2382 0.6723
vn -0.6679 0.4271 0.6095
vn -0.6385 0.3684 -0.6757
vn -0.6862 0.1910 -0.7019
vn -0.7175 0.1608 -0.6777
vn -0.9450 0.3268 -0.0106
vn -0.9830 0.1834 -0.0121
vn -0.9925 0.1216 -0.0100
vn -0.0000 0.3845 -0.9231
vn -0.0000 0.1865 -0.9825
vn -0.0000 0.1971 -0.9804
vn -0.0000 0.5155 0.8569
vn -0.0000 0.2926 0.9562
vn -0.0000 0.0958 0.9954
vn -0.9800 -0.1955 0.0381
vn -0.4228 -0.3228 -0.8468
vn -0.0000 -0.1989 0.9800
vn -0.7479 -0.2749 -0.6042
vn -0.6826 -0.2107 0.6998
vn 0.6501 -0.2502 0.7175
vn 0.1940 0.1633 0.9673
vn 0.4980 0.0396 -0.8663
vn 0.3334 0.4100 -0.8490
vn 0.9492 -0.1572 -0.2726
vn 0.4345 0.3318 -0.8373
vn 0.9351 -0.2693 -0.2303
vn 0.6602 -0.2763 0.6984
vn 0.5361 -0.1835 -0.8240
vn 0.3422 0.8281 -0.4441
vn 0.2798 0.7295 -0.6241
vn 0.1766 0.4264 0.8871
vn 0.2861 0.8153 0.5034
vn 0.1728 0.6254 -0.7609
vn 0.9777 -0.1928 -0.0839
vn 0.6740 -0.1451 0.7244
vn 0.5744 -0.1181 -0.8100
vn 0.9981 0.0053 -0.0617
vn 0.6344 0.0083 0.7729
vn 0.6108 -0.0027 -0.7917
vn 0.9949 0.0706 -0.0722
vn 0.6119 0.1561 0.7754
vn 0.6232 -0.0295 -0.7815
vn 0.9792 0.1704 -0.1103
vn 0.6362 0.1825 0.7496
vn 0.5676 0.0704 -0.8203
vn -0.5279 -0.4139 -0.7416
vn 0.4624 0.0911 0.8820
vn -0.8735 -0.4835 0.0569
vn 0.1637 -0.4197 0.8928
vn 0.4234 0.0455 -0.9048
vn 0.9167 0.2688 0.2957
vn 0.5373 0.1776 0.8245
vn 0.7988 0.6005 -0.0356
vn -0.7473 0.6180 -0.2442
vn -0.0916 0.2328 0.9682
vn -0.9752 0.2188 -0.0349
vn -0.7838 0.2173 0.5817
vn 0.1180 0.9379 -0.3262
vn -0.9638 -0.2626 0.0465
vn -0.6941 0.0751 0.7159
vn 0.0977 -0.5093 -0.8550
vn -0.6146 -0.4964 -0.6131
vn 0.9705 -0.2107 -0.1171
vn 0.6339 -0.3905 -0.6676
vn 0.1012 0.2758 0.9559
vn 0.7609 0.1379 0.6340
vn -0.9734 -0.2003 0.1112
vn 0.2038 -0.1181 -0.9719
vn 0.9910 0.0276 -0.1307
vn -0.6203 -0.1428 0.7713
vn -0.6337 -0.2407 -0.7352
vn 0.6411 -0.0300 -0.7668
vn 0.1921 -0.0668 0.9791
vn 0.7713 0.0285 0.6358
vn -0.9923 -0.1231 0.0095
vn 0.0937 0.0278 -0.9952
vn 0.9638 0.1902 -0.1871
vn -0.6612 -0.1934 0.7248
vn -0.6513 -0.0869 -0.7538
vn 0.5743 0.1214 -0.8096
vn 0.3892 -0.0618 0.9191
vn 0.7305 0.1091 0.6742
vn -0.6233 -0.1253 0.7719
vn -0.6480 -0.3511 -0.6759
vn 0.6452 -0.2079 -0.7352
vn 0.1795 -0.0046 0.9837
vn 0.7576 0.0053 0.6527
vn -0.9627 -0.2660 0.0497
vn 0.1289 -0.2970 -0.9462
vn 0.9892 -0.1183 -0.0865
vn -0.6435 0.0400 0.7644
vn -0.7037 -0.1187 -0.7005
vn 0.7179 -0.0623 -0.6933
vn 0.0867 0.0853 0.9926
vn 0.7720 0.0455 0.6340
vn -0.9956 -0.0470 0.0805
vn 0.0007 -0.1089 -0.9941
vn 0.9992 -0.0113 -0.0372
vn -0.9967 -0.0693 0.0426
vn 0.0758 -0.4272 -0.9010
vn 0.9972 -0.0293 -0.0687
vn -0.6587 0.2411 0.7128
vn -0.6748 -0.3599 -0.6443
vn 0.6782 -0.2825 -0.6784
vn 0.0846 0.3611 0.9287
vn 0.7610 0.2534 0.5972
vn -0.7506 0.1012 0.6530
vn -0.7140 0.3966 -0.5770
vn 0.7748 0.3281 -0.5404
vn -0.0193 0.1407 0.9899
vn 0.7061 0.0647 0.7051
vn -0.9934 0.1126 -0.0206
vn 0.0773 0.5116 -0.8557
vn 0.9783 0.1726 0.1148
vn 0.7207 -0.6045 0.3394
vn 0.4218 -0.6211 0.6606
vn -0.0718 -0.5920 0.8027
vn -0.7455 -0.6665 -0.0005
vn -0.6709 -0.5617 0.4840
vn 0.7702 -0.6092 0.1889
vn -0.7128 -0.6993 -0.0529
vn 0.8397 0.5292 -0.1218
vn -0.6036 0.5360 -0.5903
vn 0.3556 0.5971 -0.7190
vn 0.8137 -0.5671 -0.1274
vn -0.5770 -0.5648 -0.5900
vn 0.3558 -0.5851 -0.7288
vn 0.3534 -0.2244 0.9082
vn 0.4349 0.1790 -0.8825
vn 0.6989 -0.1661 -0.6956
vn -0.5868 -0.7612 0.2761
vn -0.3879 -0.2126 0.8969
vn -0.0374 0.2782 -0.9598
vn 0.4750 0.4863 0.7334
vn 0.7746 0.5972 -0.2082
vn -0.7853 -0.5451 -0.2934
vn 0.6269 0.5920 0.5065
vn 0.1448 -0.0049 0.9895
vn -0.5783 -0.6083 -0.5436
vn 0.3851 0.0594 -0.9210
vn -0.6150 -0.6035 0.5074
vn 0.6923 0.6059 -0.3919
vn 0.7723 0.4617 0.4363
vn -0.7337 -0.4925 -0.4681
vn 0.0352 -0.0925 0.9951
vn 0.0844 0.0286 -0.9960
vn -0.6993 -0.5281 0.4817
vn 0.7363 0.4823 -0.4746
vn 0.7029 0.4792 0.5257
vn -0.7957 -0.5456 -0.2629
vn 0.0117 -0.0480 0.9988
vn -0.1819 -0.0123 -0.9832
vn -0.6098 -0.5149 0.6026
vn 0.6520 0.5022 -0.5681
vn 0.0490 -0.1955 0.9795
vn -0.0136 -0.0443 -0.9989
vn -0.6510 -0.5692 0.5021
vn 0.7316 0.4194 -0.5374
vn 0.8050 0.3571 0.4737
vn -0.7375 -0.5373 -0.4093
vn 0.7575 0.3990 0.5167
vn -0.6916 -0.5621 -0.4536
vn 0.1197 -0.1469 0.9819
vn 0.0107 0.0302 -0.9995
vn -0.5513 -0.5930 0.5869
vn 0.6961 0.5120 -0.5033
vn 0.8509 0.2778 0.4459
vn -0.7025 -0.6195 -0.3504
vn 0.0480 -0.2606 0.9643
vn -0.0193 -0.1515 -0.9883
vn -0.5591 -0.6366 0.5312
vn 0.7593 0.3366 -0.5569
vn 0.0256 -0.0372 0.9990
vn -0.1927 0.0901 -0.9771
vn -0.6286 -0.4677 0.6214
vn 0.5706 0.6342 -0.5217
vn 0.6493 0.5495 0.5258
vn -0.8129 -0.4838 -0.3243
vn 0.0686 -0.0597 0.9959
vn 0.1620 0.0335 -0.9862
vn -0.6833 -0.5406 0.4908
vn 0.7390 0.5283 -0.4180
vn 0.7219 0.4967 0.4819
vn -0.6683 -0.5062 -0.5451
vn 0.1840 -0.0052 0.9829
vn 0.5045 0.0414 -0.8624
vn -0.4901 -0.7191 0.4926
vn 0.5172 0.7505 -0.4114
vn 0.4329 0.7404 0.5142
vn -0.3097 -0.7358 -0.6022
vn 0.4752 0.4242 -0.7709
vn 0.3268 0.9393 -0.1047
vn 0.2980 0.4025 -0.8656
vn 0.7412 0.6467 -0.1802
vn 0.4681 0.5783 0.6682
vn 0.2674 0.6568 0.7051
vn 0.4356 -0.7155 -0.5462
vn 0.6836 -0.5660 -0.4608
vn 0.9776 -0.1977 0.0720
vn 0.7285 0.0707 0.6814
vn 0.2537 0.1587 -0.9542
vn 0.5207 0.2913 0.8025
vn 0.8436 0.5090 -0.1712
vn 0.4830 -0.4031 -0.7773
vn 0.7322 -0.1848 0.6555
vn 0.9044 -0.4108 -0.1153
vn -0.8116 -0.5359 0.2327
vn -0.5141 -0.2817 0.8102
vn -0.7965 -0.4929 -0.3501
vn -0.2269 -0.9600 0.1643
vn -0.1983 -0.7660 0.6115
vn -0.5593 -0.6959 -0.4504
vn 0.6564 0.3602 0.6629
vn -0.5773 -0.6450 -0.5007
vn -0.0694 -0.3353 0.9396
vn 0.1306 0.1571 -0.9789
vn -0.4578 -0.7943 0.3994
vn 0.7756 0.5304 -0.3422
vn -0.6440 -0.6549 0.3955
vn 0.5762 0.2750 -0.7697
vn -0.3909 -0.1286 -0.9114
vn -0.9222 -0.3146 0.2249
vn 0.3392 0.0458 0.9396
vn 0.8403 0.2139 -0.4982
vn -0.0015 -0.8608 -0.5089
vn -0.4134 -0.7634 0.4963
vn 0.4667 -0.1064 0.8780
vn 0.9301 -0.3010 -0.2104
vn 0.5922 0.6895 0.4170
vn 0.5962 -0.7360 -0.3206
vn 0.5198 0.7190 -0.4613
vn 0.8617 -0.5001 0.0854
vn 0.7323 -0.0637 0.6780
vn 0.6408 0.7675 -0.0190
vn 0.7557 -0.0908 -0.6486
vn 0.3237 -0.8783 -0.3518
vn 0.9992 -0.0382 -0.0128
vn 0.6704 -0.2060 0.7129
vn 0.7740 -0.2340 -0.5884
vn 0.7599 -0.3625 -0.5396
vn 0.9584 -0.2679 0.0989
vn 0.9712 -0.2334 0.0485
vn 0.4418 -0.4545 -0.7734
vn 0.4327 -0.1914 -0.8810
vn 0.6697 -0.2293 0.7064
vn 0.6483 -0.2618 0.7149
vn 0.6940 0.1092 0.7117
vn 0.7009 0.2382 0.6723
vn 0.6679 0.4271 0.6095
vn 0.6385 0.3684 -0.6757
vn 0.6862 0.1910 -0.7019
vn 0.7175 0.1608 -0.6777
vn 0.9450 0.3268 -0.0106
vn 0.9830 0.1834 -0.0121
vn 0.9925 0.1216 -0.0100
vn 0.9800 -0.1955 0.0381
vn 0.4228 -0.3228 -0.8468
vn 0.7479 -0.2749 -0.6042
vn 0.6826 -0.2107 0.6998
vt 0.386470 0.479195
vt 0.363872 0.510137
vt 0.329000 0.495387
vt 0.334600 0.472908
vt 0.788956 0.489871
vt 0.788956 0.514242
vt 0.728651 0.511973
vt 0.731135 0.486662
vt 0.288956 0.485753
vt 0.288956 0.463604
vt 0.752822 0.544510
vt 0.728783 0.542431
vt 0.411828 0.679748
vt 0.413260 0.692237
vt 0.406035 0.690517
vt 0.404318 0.680284
vt 0.432040 0.419600
vt 0.381411 0.454548
vt 0.368371 0.408004
vt 0.411106 0.394455
vt 0.330048 0.395311
vt 0.288956 0.391045
vt 0.288956 0.361712
vt 0.328844 0.365009
vt 0.368013 0.377579
vt 0.788956 0.466508
vt 0.735397 0.469759
vt 0.744469 0.432775
vt 0.788956 0.436141
vt 0.335482 0.446795
vt 0.288956 0.436915
vt 0.320588 0.523167
vt 0.295895 0.530526
vt 0.293581 0.515602
vt 0.291268 0.500678
vt 0.341667 0.536286
vt 0.334085 0.560908
vt 0.317574 0.546547
vt 0.422946 0.652070
vt 0.418856 0.661038
vt 0.414493 0.657624
vt 0.417322 0.650953
vt 0.288956 0.337492
vt 0.331164 0.342533
vt 0.368557 0.352509
vt 0.788956 0.386391
vt 0.750149 0.383973
vt 0.750652 0.362468
vt 0.788956 0.362282
vt 0.747138 0.408172
vt 0.788956 0.409890
vt 0.403465 0.374170
vt 0.334354 0.318128
vt 0.288956 0.310189
vt 0.288956 0.286139
vt 0.336548 0.289370
vt 0.402489 0.352602
vt 0.370382 0.325749
vt 0.373386 0.301152
vt 0.406785 0.333218
vt 0.788956 0.268145
vt 0.788956 0.292268
vt 0.767757 0.274180
vt 0.783684 0.234531
vt 0.788956 0.321731
vt 0.765488 0.309573
vt 0.415711 0.305467
vt 0.748308 0.329491
vt 0.788956 0.339846
vt 0.317440 0.261999
vt 0.288956 0.246624
vt 0.288956 0.230396
vt 0.310474 0.221657
vt 0.288956 0.131019
vt 0.304912 0.175620
vt 0.139391 0.676797
vt 0.136881 0.685917
vt 0.128295 0.686435
vt 0.132110 0.674612
vt 0.149122 0.663668
vt 0.142644 0.665697
vt 0.136309 0.650673
vt 0.148523 0.652149
vt 0.161343 0.674672
vt 0.154810 0.666807
vt 0.162664 0.651987
vt 0.168735 0.670370
vt 0.137563 0.692959
vt 0.129508 0.693065
vt 0.167742 0.692402
vt 0.164783 0.684783
vt 0.172713 0.685101
vt 0.176275 0.693065
vt 0.445300 0.157934
vt 0.428227 0.152543
vt 0.433878 0.139500
vt 0.450292 0.146823
vt 0.413838 0.142693
vt 0.404040 0.136255
vt 0.410835 0.126813
vt 0.419905 0.132705
vt 0.396189 0.127859
vt 0.386039 0.114828
vt 0.393755 0.106804
vt 0.403956 0.119267
vt 0.684305 0.154544
vt 0.671444 0.163473
vt 0.666483 0.150288
vt 0.677298 0.142070
vt 0.696867 0.144200
vt 0.689620 0.133553
vt 0.716572 0.129571
vt 0.707019 0.121038
vt 0.773846 0.201184
vt 0.755213 0.237071
vt 0.723870 0.189302
vt 0.745364 0.167568
vt 0.344038 0.217380
vt 0.341128 0.195798
vt 0.367914 0.160797
vt 0.375632 0.176299
vt 0.380873 0.261084
vt 0.355795 0.244634
vt 0.390290 0.191665
vt 0.406237 0.204507
vt 0.747261 0.266255
vt 0.713418 0.211339
vt 0.727186 0.287245
vt 0.691519 0.226198
vt 0.327617 0.168249
vt 0.352414 0.136530
vt 0.416954 0.265900
vt 0.428349 0.209211
vt 0.458422 0.137900
vt 0.441339 0.130727
vt 0.470062 0.089547
vt 0.481587 0.100927
vt 0.427832 0.123306
vt 0.418408 0.116501
vt 0.447738 0.070966
vt 0.457176 0.080067
vt 0.410540 0.109326
vt 0.399002 0.098821
vt 0.415132 0.061120
vt 0.437747 0.062841
vt 0.670895 0.131267
vt 0.661999 0.137229
vt 0.634627 0.100498
vt 0.649160 0.097470
vt 0.682212 0.125532
vt 0.661384 0.090027
vt 0.698744 0.114295
vt 0.675356 0.077619
vt 0.500733 0.015479
vt 0.508777 0.019083
vt 0.488684 0.009332
vt 0.492944 0.012481
vt 0.476320 0.000190
vt 0.484586 0.005452
vt 0.602297 0.012375
vt 0.608459 0.008736
vt 0.614189 0.005259
vt 0.621360 0.000190
vt 0.112856 0.685010
vt 0.115094 0.671094
vt 0.185691 0.664942
vt 0.190786 0.680668
vt 0.193563 0.690333
vt 0.112880 0.691518
vt 0.404655 0.716204
vt 0.390093 0.714983
vt 0.395916 0.713035
vt 0.413552 0.728442
vt 0.388228 0.728139
vt 0.416927 0.745372
vt 0.388697 0.744484
vt 0.117657 0.654265
vt 0.180176 0.646953
vt 0.149572 0.598248
vt 0.163805 0.604932
vt 0.133779 0.602661
vt 0.150920 0.585690
vt 0.169604 0.600451
vt 0.125450 0.596482
vt 0.411436 0.807983
vt 0.388228 0.803841
vt 0.423948 0.791846
vt 0.442051 0.428902
vt 0.668494 0.453232
vt 0.652950 0.471751
vt 0.635723 0.443872
vt 0.648413 0.429116
vt 0.442630 0.517725
vt 0.453669 0.496592
vt 0.487037 0.511830
vt 0.478134 0.528601
vt 0.561256 0.643168
vt 0.566531 0.646275
vt 0.567152 0.651465
vt 0.560395 0.649143
vt 0.415589 0.670473
vt 0.410636 0.667678
vt 0.551594 0.641303
vt 0.551361 0.647704
vt 0.350388 0.562343
vt 0.353290 0.538628
vt 0.362736 0.539181
vt 0.361787 0.562813
vt 0.402163 0.476285
vt 0.438233 0.445033
vt 0.439866 0.449728
vt 0.408952 0.476830
vt 0.377513 0.507689
vt 0.382176 0.508941
vt 0.718326 0.477367
vt 0.710230 0.500764
vt 0.705261 0.498131
vt 0.714757 0.474526
vt 0.712443 0.536890
vt 0.703474 0.529988
vt 0.370952 0.562850
vt 0.368336 0.538903
vt 0.400831 0.537208
vt 0.401733 0.561910
vt 0.412655 0.477968
vt 0.441838 0.453261
vt 0.450392 0.465391
vt 0.427040 0.484015
vt 0.386911 0.508658
vt 0.407424 0.510145
vt 0.712259 0.471758
vt 0.701537 0.493713
vt 0.688262 0.477764
vt 0.702116 0.460649
vt 0.697228 0.522998
vt 0.674698 0.500396
vt 0.469823 0.568574
vt 0.471320 0.548655
vt 0.476342 0.549761
vt 0.474389 0.569033
vt 0.497958 0.498951
vt 0.501527 0.501040
vt 0.491133 0.513445
vt 0.482782 0.530111
vt 0.657797 0.421084
vt 0.643407 0.425908
vt 0.654562 0.418317
vt 0.633518 0.439855
vt 0.685341 0.442858
vt 0.436662 0.541382
vt 0.469861 0.479289
vt 0.436918 0.567580
vt 0.478913 0.570890
vt 0.480912 0.551261
vt 0.512955 0.561968
vt 0.513413 0.578595
vt 0.494753 0.515603
vt 0.505884 0.502775
vt 0.537414 0.517632
vt 0.523683 0.531107
vt 0.486899 0.531885
vt 0.517845 0.546839
vt 0.651603 0.414827
vt 0.640026 0.422515
vt 0.614560 0.397832
vt 0.627118 0.389734
vt 0.629955 0.437051
vt 0.605753 0.411785
vt 0.035740 0.768593
vt 0.058803 0.767172
vt 0.055673 0.784475
vt 0.035972 0.782596
vt 0.301944 0.543636
vt 0.788359 0.547745
vt 0.787914 0.558382
vt 0.770673 0.557930
vt 0.741642 0.562462
vt 0.756629 0.572564
vt 0.078480 0.769544
vt 0.078480 0.785958
vt 0.595991 0.585392
vt 0.609930 0.572945
vt 0.619864 0.582925
vt 0.609949 0.595619
vt 0.578103 0.597728
vt 0.595043 0.611034
vt 0.383306 0.677232
vt 0.366396 0.648659
vt 0.377332 0.640305
vt 0.384373 0.627723
vt 0.359259 0.634482
vt 0.363436 0.627740
vt 0.370951 0.622599
vt 0.555519 0.683644
vt 0.543486 0.679429
vt 0.550724 0.662455
vt 0.571433 0.689344
vt 0.550947 0.712103
vt 0.537456 0.703771
vt 0.562777 0.710988
vt 0.563860 0.575951
vt 0.564102 0.585309
vt 0.577722 0.549366
vt 0.572146 0.557371
vt 0.566239 0.566464
vt 0.583647 0.361005
vt 0.588051 0.356295
vt 0.578103 0.368684
vt 0.388241 0.623443
vt 0.368963 0.618295
vt 0.358752 0.623628
vt 0.354309 0.636099
vt 0.362735 0.654830
vt 0.373143 0.701446
vt 0.370343 0.695474
vt 0.368627 0.675481
vt 0.365509 0.691673
vt 0.362093 0.697715
vt 0.360690 0.696026
vt 0.539689 0.671791
vt 0.534254 0.667853
vt 0.362316 0.686876
vt 0.358128 0.703852
vt 0.354309 0.694291
vt 0.539145 0.681045
vt 0.533580 0.681274
vt 0.060121 0.855480
vt 0.060115 0.864770
vt 0.046376 0.883135
vt 0.035404 0.870304
vt 0.700812 0.621431
vt 0.711349 0.632639
vt 0.693792 0.644931
vt 0.682863 0.642726
vt 0.659171 0.599956
vt 0.667914 0.603458
vt 0.654268 0.632923
vt 0.644495 0.627563
vt 0.642643 0.661155
vt 0.630858 0.652554
vt 0.693116 0.661155
vt 0.680913 0.661155
vt 0.078480 0.855566
vt 0.078480 0.866654
vt 0.721020 0.661155
vt 0.078480 0.894292
vt 0.078480 0.810853
vt 0.055705 0.808445
vt 0.055599 0.796028
vt 0.078480 0.799095
vt 0.026098 0.802786
vt 0.028493 0.787947
vt 0.625472 0.589963
vt 0.618463 0.616098
vt 0.599038 0.625243
vt 0.055486 0.825574
vt 0.023197 0.822867
vt 0.023550 0.813842
vt 0.055434 0.819982
vt 0.078480 0.826444
vt 0.078480 0.821394
vt 0.625870 0.619458
vt 0.605971 0.637418
vt 0.635732 0.622867
vt 0.621535 0.647510
vt 0.640185 0.593889
vt 0.650591 0.597491
vt 0.078480 0.831414
vt 0.078480 0.838490
vt 0.057597 0.837252
vt 0.055710 0.830893
vt 0.078480 0.848877
vt 0.058943 0.846515
vt 0.665092 0.636812
vt 0.658461 0.661155
vt 0.675000 0.640069
vt 0.671991 0.661155
vt 0.679118 0.608119
vt 0.691408 0.614891
vt 0.024879 0.845251
vt 0.022338 0.832396
vt 0.029426 0.859643
vt 0.191443 0.479195
vt 0.243313 0.472908
vt 0.248913 0.495387
vt 0.214041 0.510137
vt 0.846777 0.486662
vt 0.849261 0.511973
vt 0.849130 0.542431
vt 0.825091 0.544510
vt 0.433522 0.656371
vt 0.441032 0.656906
vt 0.439315 0.667139
vt 0.432090 0.668860
vt 0.145873 0.419600
vt 0.166807 0.394455
vt 0.209542 0.408004
vt 0.196502 0.454548
vt 0.247864 0.395311
vt 0.249069 0.365009
vt 0.209899 0.377579
vt 0.833444 0.432775
vt 0.842516 0.469759
vt 0.242431 0.446795
vt 0.257325 0.523167
vt 0.286645 0.500678
vt 0.284332 0.515603
vt 0.282017 0.530526
vt 0.236245 0.536286
vt 0.260338 0.546547
vt 0.243828 0.560908
vt 0.422404 0.628693
vt 0.428028 0.627575
vt 0.430857 0.634246
vt 0.426494 0.637661
vt 0.246749 0.342533
vt 0.209355 0.352509
vt 0.827261 0.362468
vt 0.827764 0.383973
vt 0.830775 0.408172
vt 0.174448 0.374170
vt 0.243559 0.318128
vt 0.241364 0.289370
vt 0.175424 0.352602
vt 0.207531 0.325749
vt 0.204527 0.301152
vt 0.171128 0.333218
vt 0.794011 0.234026
vt 0.810156 0.274180
vt 0.812424 0.309573
vt 0.162202 0.305467
vt 0.829605 0.329491
vt 0.260473 0.261999
vt 0.267438 0.221657
vt 0.273001 0.175620
vt 0.273031 0.678950
vt 0.280312 0.676765
vt 0.284127 0.688588
vt 0.275542 0.688070
vt 0.263300 0.665821
vt 0.263899 0.654302
vt 0.276113 0.652826
vt 0.269779 0.667850
vt 0.251079 0.676826
vt 0.243687 0.672523
vt 0.249759 0.654140
vt 0.257612 0.668960
vt 0.282914 0.695218
vt 0.274859 0.695112
vt 0.244680 0.694555
vt 0.236147 0.695218
vt 0.239710 0.687254
vt 0.247639 0.686936
vt 0.132612 0.157934
vt 0.127620 0.146823
vt 0.144034 0.139500
vt 0.149685 0.152543
vt 0.164075 0.142693
vt 0.158008 0.132705
vt 0.167078 0.126813
vt 0.173873 0.136255
vt 0.181723 0.127859
vt 0.173956 0.119267
vt 0.184158 0.106804
vt 0.191874 0.114828
vt 0.893608 0.154544
vt 0.900614 0.142071
vt 0.911429 0.150288
vt 0.906468 0.163473
vt 0.881046 0.144200
vt 0.888293 0.133554
vt 0.861341 0.129571
vt 0.870894 0.121038
vt 0.802839 0.201142
vt 0.832548 0.167568
vt 0.854043 0.189302
vt 0.822699 0.237071
vt 0.233875 0.217380
vt 0.202280 0.176299
vt 0.209998 0.160797
vt 0.236785 0.195798
vt 0.197040 0.261084
vt 0.171676 0.204507
vt 0.187623 0.191665
vt 0.222117 0.244634
vt 0.864495 0.211339
vt 0.830652 0.266255
vt 0.886394 0.226198
vt 0.850726 0.287245
vt 0.225499 0.136530
vt 0.250296 0.168249
vt 0.160958 0.265900
vt 0.149563 0.209211
vt 0.119490 0.137900
vt 0.096326 0.100927
vt 0.107851 0.089547
vt 0.136574 0.130727
vt 0.150080 0.123306
vt 0.120737 0.080067
vt 0.130175 0.070966
vt 0.159505 0.116501
vt 0.167372 0.109326
vt 0.140166 0.062841
vt 0.162780 0.061120
vt 0.178911 0.098821
vt 0.907017 0.131267
vt 0.928752 0.097470
vt 0.943286 0.100498
vt 0.915914 0.137229
vt 0.895701 0.125532
vt 0.916528 0.090027
vt 0.879169 0.114295
vt 0.902557 0.077619
vt 0.069135 0.019083
vt 0.077180 0.015479
vt 0.084968 0.012481
vt 0.089229 0.009332
vt 0.093327 0.005452
vt 0.101592 0.000191
vt 0.969454 0.008736
vt 0.975616 0.012375
vt 0.963723 0.005259
vt 0.956552 0.000191
vt 0.297329 0.673247
vt 0.299566 0.687163
vt 0.221636 0.682821
vt 0.226731 0.667095
vt 0.218859 0.692486
vt 0.299543 0.693671
vt 0.450907 0.777746
vt 0.442168 0.780914
vt 0.436345 0.778967
vt 0.459804 0.765507
vt 0.434480 0.765810
vt 0.434949 0.749465
vt 0.463179 0.748578
vt 0.294765 0.656418
vt 0.232247 0.649106
vt 0.248617 0.607085
vt 0.262851 0.600402
vt 0.278644 0.604814
vt 0.242818 0.602604
vt 0.261502 0.587843
vt 0.286972 0.598635
vt 0.457688 0.685966
vt 0.470200 0.702104
vt 0.434480 0.690109
vt 0.135862 0.428902
vt 0.909418 0.453232
vt 0.929499 0.429116
vt 0.942189 0.443872
vt 0.924963 0.471751
vt 0.135283 0.517725
vt 0.099779 0.528601
vt 0.090876 0.511830
vt 0.124243 0.496592
vt 0.525541 0.658888
vt 0.524681 0.652912
vt 0.531437 0.650590
vt 0.530817 0.655780
vt 0.429761 0.647095
vt 0.434714 0.644300
vt 0.515879 0.660753
vt 0.515646 0.654352
vt 0.227525 0.562343
vt 0.216126 0.562813
vt 0.215177 0.539181
vt 0.224623 0.538628
vt 0.175750 0.476285
vt 0.168961 0.476830
vt 0.138047 0.449728
vt 0.139680 0.445033
vt 0.195736 0.508941
vt 0.200400 0.507689
vt 0.859587 0.477367
vt 0.863156 0.474526
vt 0.872652 0.498131
vt 0.867683 0.500764
vt 0.874438 0.529988
vt 0.865469 0.536890
vt 0.206961 0.562850
vt 0.176179 0.561910
vt 0.177082 0.537208
vt 0.209577 0.538903
vt 0.165258 0.477968
vt 0.150873 0.484015
vt 0.127521 0.465391
vt 0.136075 0.453261
vt 0.170488 0.510145
vt 0.191001 0.508658
vt 0.865654 0.471758
vt 0.875797 0.460649
vt 0.889650 0.477764
vt 0.876375 0.493713
vt 0.903215 0.500396
vt 0.880685 0.522998
vt 0.108090 0.568574
vt 0.103523 0.569033
vt 0.101571 0.549761
vt 0.106592 0.548655
vt 0.086780 0.513445
vt 0.076386 0.501040
vt 0.079955 0.498951
vt 0.095130 0.530111
vt 0.920116 0.421084
vt 0.923351 0.418316
vt 0.934506 0.425908
vt 0.944395 0.439855
vt 0.892572 0.442858
vt 0.141250 0.541382
vt 0.108052 0.479289
vt 0.140995 0.567580
vt 0.099000 0.570890
vt 0.064500 0.578595
vt 0.064958 0.561968
vt 0.097000 0.551261
vt 0.083160 0.515603
vt 0.054230 0.531107
vt 0.040499 0.517632
vt 0.072029 0.502775
vt 0.060067 0.546839
vt 0.091014 0.531885
vt 0.926310 0.414827
vt 0.950795 0.389734
vt 0.963352 0.397832
vt 0.937886 0.422515
vt 0.972160 0.411785
vt 0.947958 0.437051
vt 0.121220 0.768593
vt 0.120988 0.782596
vt 0.101286 0.784475
vt 0.098157 0.767172
vt 0.275968 0.543636
vt 0.789553 0.547745
vt 0.807240 0.557930
vt 0.789998 0.558382
vt 0.836271 0.562462
vt 0.821284 0.572564
vt 0.595991 0.736918
vt 0.609949 0.726691
vt 0.619864 0.739385
vt 0.609930 0.749365
vt 0.578103 0.724582
vt 0.595043 0.711276
vt 0.468018 0.616927
vt 0.478954 0.625282
vt 0.462044 0.653854
vt 0.460978 0.604345
vt 0.481914 0.604363
vt 0.486091 0.611105
vt 0.474399 0.599221
vt 0.515009 0.639601
vt 0.507772 0.622627
vt 0.519805 0.618411
vt 0.535718 0.612712
vt 0.501741 0.598285
vt 0.515232 0.589953
vt 0.527062 0.591067
vt 0.013811 0.585309
vt 0.014052 0.575951
vt 0.005767 0.557371
vt 0.000190 0.549366
vt 0.011673 0.566464
vt 0.989861 0.356294
vt 0.994265 0.361005
vt 0.999809 0.368684
vt 0.457109 0.600066
vt 0.476387 0.594917
vt 0.486598 0.600250
vt 0.491041 0.612722
vt 0.482615 0.631453
vt 0.475007 0.672096
vt 0.472206 0.678069
vt 0.476723 0.652103
vt 0.479841 0.668295
vt 0.484660 0.672648
vt 0.483257 0.674338
vt 0.499121 0.633428
vt 0.504556 0.629489
vt 0.483034 0.663498
vt 0.487222 0.680475
vt 0.491041 0.670914
vt 0.498447 0.620007
vt 0.504012 0.620235
vt 0.096839 0.855480
vt 0.121556 0.870304
vt 0.110584 0.883135
vt 0.096845 0.864770
vt 0.700812 0.700879
vt 0.682863 0.679583
vt 0.693792 0.677378
vt 0.711349 0.689671
vt 0.659171 0.722353
vt 0.644495 0.694747
vt 0.654268 0.689387
vt 0.667914 0.718852
vt 0.630858 0.669756
vt 0.101361 0.796028
vt 0.101254 0.808445
vt 0.128466 0.787947
vt 0.130861 0.802786
vt 0.625472 0.732346
vt 0.618463 0.706211
vt 0.599038 0.697066
vt 0.101473 0.825574
vt 0.101526 0.819982
vt 0.133410 0.813842
vt 0.133763 0.822867
vt 0.605971 0.684892
vt 0.625870 0.702851
vt 0.621535 0.674800
vt 0.635732 0.699443
vt 0.640185 0.728420
vt 0.650591 0.724818
vt 0.101249 0.830893
vt 0.099363 0.837252
vt 0.098017 0.846515
vt 0.665092 0.685498
vt 0.675000 0.682241
vt 0.679118 0.714190
vt 0.691408 0.707418
vt 0.134622 0.832396
vt 0.132081 0.845251
vt 0.127534 0.859642
s 1
usemtl 
f 132/1/132 10/2/10 4/3/4 129/4/129
f 130/5/130 8/6/8 2/7/2 128/8/128
f 129/4/129 4/3/4 6/9/6 131/10/131
f 2/7/2 8/6/8 199/11/199 19/12/19
f 220/13/220 218/14/218 138/15/138 135/16/135
f 1/17/1 9/18/9 11/19/11 12/20/12
f 14/21/14 13/22/13 23/23/23 24/24/24
f 11/19/11 14/21/14 24/24/24 21/25/21
f 7/26/7 1/27/1 12/28/12 15/29/15
f 9/18/9 3/30/3 14/21/14 11/19/11
f 3/30/3 5/31/5 13/22/13 14/21/14
f 17/32/17 193/33/193 195/34/195 20/35/20
f 16/36/16 19/37/19 194/38/194 17/32/17
f 6/9/6 4/3/4 17/32/17 20/35/20
f 4/3/4 10/2/10 16/36/16 17/32/17
f 219/39/219 217/40/217 136/41/136 134/42/134
f 24/24/24 23/23/23 28/43/28 29/44/29
f 21/25/21 24/24/24 29/44/29 26/45/26
f 30/46/30 27/47/27 32/48/32 35/49/35
f 15/29/15 12/28/12 22/50/22 25/51/25
f 12/20/12 11/19/11 21/25/21 22/52/22
f 34/53/34 33/54/33 38/55/38 39/56/39
f 25/51/25 22/50/22 27/47/27 30/46/30
f 22/52/22 21/25/21 26/45/26 27/57/27
f 31/58/31 34/53/34 39/56/39 36/59/36
f 26/45/26 29/44/29 34/53/34 31/58/31
f 29/44/29 28/43/28 33/54/33 34/53/34
f 27/57/27 26/45/26 31/58/31 32/60/32
f 45/61/45 48/62/48 47/63/47 46/64/46
f 48/62/48 44/65/44 43/66/43 47/63/47
f 32/60/32 31/58/31 36/59/36 37/67/37
f 35/49/35 32/48/32 37/68/37 40/69/40
f 49/70/49 50/71/50 41/72/41 42/73/42
f 41/72/41 45/74/45 46/75/46 42/73/42
f 40/69/40 37/68/37 43/66/43 44/65/44
f 39/56/39 38/55/38 50/71/50 49/70/49
f 112/76/112 107/77/107 57/78/57 56/79/56
f 113/80/113 108/81/108 54/82/54 58/83/58
f 114/84/114 109/85/109 53/86/53 51/87/51
f 107/77/107 110/88/110 55/89/55 57/78/57
f 110/90/110 111/91/111 52/92/52 55/93/55
f 108/81/108 112/76/112 56/79/56 54/82/54
f 109/85/109 113/80/113 58/83/58 53/86/53
f 111/91/111 114/84/114 51/87/51 52/92/52
f 87/94/87 90/95/90 63/96/63 66/97/66
f 85/98/85 89/99/89 61/100/61 64/101/64
f 84/102/84 88/103/88 59/104/59 62/105/62
f 86/106/86 87/107/87 66/108/66 65/109/65
f 83/110/83 86/106/86 65/109/65 60/111/60
f 90/95/90 85/98/85 64/101/64 63/96/63
f 89/99/89 84/102/84 62/105/62 61/100/61
f 88/112/88 83/110/83 60/111/60 59/113/59
f 75/114/75 78/115/78 70/116/70 67/117/67
f 76/118/76 79/119/79 71/120/71 68/121/68
f 77/122/77 80/123/80 72/124/72 69/125/69
f 78/115/78 81/126/81 73/127/73 70/116/70
f 81/126/81 82/128/82 74/129/74 73/127/73
f 79/119/79 75/130/75 67/131/67 71/120/71
f 80/123/80 76/118/76 68/121/68 72/124/72
f 82/132/82 77/122/77 69/125/69 74/133/74
f 37/67/37 36/59/36 77/122/77 82/132/82
f 39/56/39 49/70/49 76/118/76 80/123/80
f 42/73/42 46/75/46 75/130/75 79/119/79
f 43/66/43 37/68/37 82/128/82 81/126/81
f 47/63/47 43/66/43 81/126/81 78/115/78
f 36/59/36 39/56/39 80/123/80 77/122/77
f 49/70/49 42/73/42 79/119/79 76/118/76
f 46/64/46 47/63/47 78/115/78 75/114/75
f 67/117/67 70/116/70 83/110/83 88/112/88
f 68/121/68 71/120/71 84/102/84 89/99/89
f 69/125/69 72/124/72 85/98/85 90/95/90
f 70/116/70 73/127/73 86/106/86 83/110/83
f 73/127/73 74/129/74 87/107/87 86/106/86
f 71/120/71 67/131/67 88/103/88 84/102/84
f 72/124/72 68/121/68 89/99/89 85/98/85
f 74/133/74 69/125/69 90/95/90 87/94/87
f 106/134/106 101/135/101 98/136/98 95/137/95
f 104/138/104 100/139/100 97/140/97 93/141/93
f 103/142/103 99/143/99 96/144/96 92/145/92
f 105/146/105 106/147/106 95/148/95 94/149/94
f 102/150/102 105/146/105 94/149/94 91/151/91
f 101/135/101 104/138/104 93/141/93 98/136/98
f 100/139/100 103/142/103 92/145/92 97/140/97
f 99/152/99 102/150/102 91/151/91 96/153/96
f 59/113/59 60/111/60 102/150/102 99/152/99
f 61/100/61 62/105/62 103/142/103 100/139/100
f 63/96/63 64/101/64 104/138/104 101/135/101
f 60/111/60 65/109/65 105/146/105 102/150/102
f 65/109/65 66/108/66 106/147/106 105/146/105
f 62/105/62 59/104/59 99/143/99 103/142/103
f 64/101/64 61/100/61 100/139/100 104/138/104
f 66/97/66 63/96/63 101/135/101 106/134/106
f 95/137/95 98/136/98 114/154/114 111/155/111
f 93/141/93 97/140/97 113/156/113 109/157/109
f 92/145/92 96/144/96 112/158/112 108/159/108
f 94/149/94 95/148/95 111/160/111 110/161/110
f 91/151/91 94/149/94 110/161/110 107/162/107
f 98/136/98 93/141/93 109/157/109 114/154/114
f 97/140/97 92/145/92 108/159/108 113/156/113
f 96/153/96 91/151/91 107/162/107 112/163/112
f 56/79/56 57/78/57 119/164/119 118/165/118
f 52/92/52 51/87/51 115/166/115 116/167/116
f 55/93/55 52/92/52 116/167/116 117/168/117
f 57/78/57 55/89/55 117/169/117 119/164/119
f 116/170/116 119/171/119 117/172/117
f 115/173/115 118/174/118 119/171/119 116/170/116
f 118/174/118 115/173/115 120/175/120 121/176/121
f 56/79/56 118/165/118 121/177/121 54/82/54
f 53/86/53 120/178/120 115/166/115 51/87/51
f 53/86/53 58/83/58 124/179/124 122/180/122
f 58/83/58 54/82/54 123/181/123 124/179/124
f 122/180/122 124/179/124 127/182/127 125/183/125
f 124/179/124 123/181/123 126/184/126 127/182/127
f 121/177/121 126/184/126 123/181/123 54/82/54
f 53/86/53 122/180/122 125/183/125 120/178/120
f 127/185/127 126/186/126 125/187/125
f 121/176/121 120/175/120 125/187/125 126/186/126
f 1/17/1 128/188/128 132/1/132 9/18/9
f 3/30/3 129/4/129 131/10/131 5/31/5
f 7/26/7 130/5/130 128/8/128 1/27/1
f 9/18/9 132/1/132 129/4/129 3/30/3
f 157/189/157 161/190/161 169/191/169 171/192/171
f 158/193/158 162/194/162 170/195/170 172/196/172
f 221/197/221 219/198/219 134/199/134 133/200/133
f 222/201/222 220/13/220 135/16/135 137/202/137
f 218/203/218 221/197/221 133/200/133 138/204/138
f 217/40/217 222/201/222 137/202/137 136/41/136
f 191/205/191 190/206/190 144/207/144 139/208/139
f 192/209/192 189/210/189 143/211/143 141/212/141
f 190/206/190 188/213/188 142/214/142 144/207/144
f 189/215/189 187/216/187 140/217/140 143/218/143
f 187/216/187 191/219/191 139/220/139 140/217/140
f 188/213/188 192/209/192 141/212/141 142/214/142
f 185/221/185 184/222/184 150/223/150 145/224/145
f 186/225/186 183/226/183 149/227/149 146/228/146
f 184/222/184 182/229/182 148/230/148 150/223/150
f 183/231/183 181/232/181 147/233/147 149/234/149
f 181/232/181 185/235/185 145/236/145 147/233/147
f 182/229/182 186/225/186 146/228/146 148/230/148
f 169/237/169 174/238/174 156/239/156 151/240/151
f 170/195/170 173/241/173 155/242/155 152/243/152
f 174/238/174 172/196/172 154/244/154 156/239/156
f 173/245/173 171/192/171 153/246/153 155/247/155
f 171/192/171 169/191/169 151/248/151 153/246/153
f 172/196/172 170/195/170 152/243/152 154/244/154
f 148/230/148 146/228/146 162/194/162 158/193/158
f 147/233/147 145/236/145 161/190/161 157/189/157
f 149/234/149 147/233/147 157/189/157 159/249/159
f 150/223/150 148/230/148 158/193/158 160/250/160
f 146/228/146 149/227/149 159/251/159 162/194/162
f 145/224/145 150/223/150 160/250/160 161/252/161
f 179/253/179 178/254/178 168/255/168 163/256/163
f 180/257/180 177/258/177 167/259/167 164/260/164
f 178/254/178 176/261/176 166/262/166 168/255/168
f 177/263/177 175/264/175 165/265/165 167/266/167
f 175/264/175 179/267/179 163/268/163 165/265/165
f 176/261/176 180/257/180 164/260/164 166/262/166
f 159/249/159 157/189/157 171/192/171 173/245/173
f 160/250/160 158/193/158 172/196/172 174/238/174
f 162/194/162 159/251/159 173/241/173 170/195/170
f 161/252/161 160/250/160 174/238/174 169/237/169
f 154/244/154 152/243/152 180/257/180 176/261/176
f 153/246/153 151/248/151 179/267/179 175/264/175
f 155/247/155 153/246/153 175/264/175 177/263/177
f 156/239/156 154/244/154 176/261/176 178/254/178
f 152/243/152 155/242/155 177/258/177 180/257/180
f 151/240/151 156/239/156 178/254/178 179/253/179
f 142/214/142 141/212/141 186/225/186 182/229/182
f 140/217/140 139/220/139 185/235/185 181/232/181
f 143/218/143 140/217/140 181/232/181 183/231/183
f 144/207/144 142/214/142 182/229/182 184/222/184
f 141/212/141 143/211/143 183/226/183 186/225/186
f 139/208/139 144/207/144 184/222/184 185/221/185
f 10/2/10 132/1/132 192/209/192 188/213/188
f 2/7/2 19/12/19 191/219/191 187/216/187
f 128/8/128 2/7/2 187/216/187 189/215/189
f 16/36/16 10/2/10 188/213/188 190/206/190
f 132/1/132 128/188/128 189/210/189 192/209/192
f 19/37/19 16/36/16 190/206/190 191/205/191
f 196/269/196 198/270/198 204/271/204 203/272/203
f 196/273/196 193/33/193 17/32/17 194/38/194
f 18/274/18 197/275/197 198/276/198 199/11/199
f 199/11/199 194/277/194 19/12/19
f 194/277/194 199/11/199 198/276/198 196/278/196
f 199/11/199 8/6/8 18/274/18
f 198/270/198 197/279/197 202/280/202 204/271/204
f 193/281/193 196/282/196 203/283/203 201/284/201
f 195/285/195 193/281/193 201/284/201 200/286/200
f 137/202/137 135/16/135 224/287/224 205/288/205 207/289/207
f 136/41/136 137/202/137 207/289/207 206/290/206
f 207/289/207 205/288/205 208/291/208 210/292/210
f 206/290/206 207/289/207 210/292/210 209/293/209
f 138/204/138 133/200/133 211/294/211 213/295/213 223/296/223
f 133/200/133 134/199/134 212/297/212 211/294/211
f 213/295/213 211/294/211 214/298/214 216/299/216
f 211/294/211 212/297/212 215/300/215 214/298/214
f 163/256/163 168/255/168 222/301/222 217/302/217
f 164/260/164 167/259/167 221/303/221 218/304/218
f 168/255/168 166/262/166 220/305/220 222/301/222
f 167/266/167 165/265/165 219/306/219 221/307/221
f 165/265/165 163/268/163 217/308/217 219/306/219
f 166/262/166 164/260/164 218/304/218 220/305/220
f 134/42/134 136/41/136 206/290/206 212/309/212
f 209/293/209 215/310/215 212/309/212 206/290/206
f 209/293/209 210/292/210 214/311/214 215/310/215
f 208/291/208 216/312/216 214/311/214 210/292/210
f 205/288/205 213/313/213 216/312/216 208/291/208
f 135/16/135 138/15/138 226/314/226 225/315/225
f 224/287/224 223/316/223 213/313/213 205/288/205
f 228/317/228 225/315/225 229/318/229 232/319/232
f 224/287/224 135/16/135 225/315/225 228/317/228
f 138/204/138 223/296/223 227/320/227 226/321/226
f 223/316/223 224/287/224 228/317/228 227/322/227
f 230/323/230 231/324/231 232/319/232 229/318/229
f 225/315/225 226/314/226 230/323/230 229/318/229
f 227/322/227 228/317/228 232/319/232 231/324/231
f 226/321/226 227/320/227 231/325/231 230/326/230
f 261/327/261 233/328/233 238/329/238 265/330/265
f 265/331/265 238/332/238 235/333/235 262/334/262
f 274/335/274 243/336/243 239/337/239 277/338/277
f 277/338/277 239/337/239 244/339/244 275/340/275
f 262/334/262 235/333/235 241/341/241 268/342/268
f 271/343/271 242/344/242 233/328/233 261/327/261
f 241/341/241 235/333/235 238/332/238 246/345/246
f 246/346/246 238/329/238 233/328/233 242/344/242
f 255/347/255 258/348/258 247/349/247 248/350/248
f 258/348/258 251/351/251 236/352/236 247/349/247
f 248/350/248 247/349/247 204/271/204 202/280/202
f 247/349/247 236/352/236 203/272/203 204/271/204
f 236/353/236 234/354/234 201/284/201 203/283/203
f 234/354/234 240/355/240 200/286/200 201/284/201
f 278/356/278 274/357/274 252/358/252 257/359/257
f 257/359/257 252/358/252 251/351/251 258/348/258
f 276/360/276 278/356/278 257/359/257 256/361/256
f 256/361/256 257/359/257 258/348/258 255/347/255
f 234/354/234 250/362/250 253/363/253 240/355/240
f 250/362/250 249/364/249 254/365/254 253/363/253
f 236/353/236 251/366/251 250/362/250 234/354/234
f 251/366/251 252/367/252 249/364/249 250/362/250
f 245/368/245 273/369/273 259/370/259 237/371/237
f 273/369/273 272/372/272 260/373/260 259/370/259
f 272/372/272 271/343/271 261/327/261 260/373/260
f 239/337/239 264/374/264 270/375/270 244/339/244
f 264/374/264 263/376/263 269/377/269 270/375/270
f 263/376/263 262/334/262 268/342/268 269/377/269
f 243/336/243 267/378/267 264/374/264 239/337/239
f 267/378/267 266/379/266 263/376/263 264/374/264
f 266/379/266 265/331/265 262/334/262 263/376/263
f 237/371/237 259/370/259 267/380/267 243/381/243
f 259/370/259 260/373/260 266/382/266 267/380/267
f 260/373/260 261/327/261 265/330/265 266/382/266
f 245/368/245 237/371/237 278/356/278 276/360/276
f 237/371/237 243/381/243 274/357/274 278/356/278
f 249/364/249 277/338/277 275/340/275 254/365/254
f 252/367/252 274/335/274 277/338/277 249/364/249
f 389/383/389 388/384/388 282/385/282 284/386/284
f 130/5/130 387/387/387 280/388/280 8/6/8
f 388/384/388 131/10/131 6/9/6 282/385/282
f 280/388/280 291/389/291 455/390/455 8/6/8
f 475/391/475 392/392/392 395/393/395 473/394/473
f 279/395/279 286/396/286 285/397/285 283/398/283
f 287/399/287 295/400/295 23/23/23 13/22/13
f 285/397/285 293/401/293 295/400/295 287/399/287
f 7/26/7 15/29/15 286/402/286 279/403/279
f 283/398/283 285/397/285 287/399/287 281/404/281
f 281/404/281 287/399/287 13/22/13 5/31/5
f 289/405/289 292/406/292 452/407/452 450/408/450
f 288/409/288 289/405/289 451/410/451 291/411/291
f 6/9/6 292/406/292 289/405/289 282/385/282
f 282/385/282 289/405/289 288/409/288 284/386/284
f 474/412/474 391/413/391 393/414/393 472/415/472
f 295/400/295 298/416/298 28/43/28 23/23/23
f 293/401/293 296/417/296 298/416/298 295/400/295
f 30/46/30 35/49/35 300/418/300 297/419/297
f 15/29/15 25/51/25 294/420/294 286/402/286
f 286/396/286 294/421/294 293/401/293 285/397/285
f 301/422/301 304/423/304 38/55/38 33/54/33
f 25/51/25 30/46/30 297/419/297 294/420/294
f 294/421/294 297/424/297 296/417/296 293/401/293
f 299/425/299 302/426/302 304/423/304 301/422/301
f 296/417/296 299/425/299 301/422/301 298/416/298
f 298/416/298 301/422/301 33/54/33 28/43/28
f 297/424/297 300/427/300 299/425/299 296/417/296
f 45/61/45 307/428/307 308/429/308 48/62/48
f 48/62/48 308/429/308 306/430/306 44/65/44
f 300/427/300 303/431/303 302/426/302 299/425/299
f 35/49/35 40/69/40 303/432/303 300/418/300
f 309/433/309 305/434/305 41/72/41 50/71/50
f 41/72/41 305/434/305 307/435/307 45/74/45
f 40/69/40 44/65/44 306/430/306 303/432/303
f 304/423/304 309/433/309 50/71/50 38/55/38
f 371/436/371 315/437/315 316/438/316 366/439/366
f 372/440/372 317/441/317 313/442/313 367/443/367
f 373/444/373 310/445/310 312/446/312 368/447/368
f 366/439/366 316/438/316 314/448/314 369/449/369
f 369/450/369 314/451/314 311/452/311 370/453/370
f 367/443/367 313/442/313 315/437/315 371/436/371
f 368/447/368 312/446/312 317/441/317 372/440/372
f 370/453/370 311/452/311 310/445/310 373/444/373
f 346/454/346 325/455/325 322/456/322 349/457/349
f 344/458/344 323/459/323 320/460/320 348/461/348
f 343/462/343 321/463/321 318/464/318 347/465/347
f 345/466/345 324/467/324 325/468/325 346/469/346
f 342/470/342 319/471/319 324/467/324 345/466/345
f 349/457/349 322/456/322 323/459/323 344/458/344
f 348/461/348 320/460/320 321/463/321 343/462/343
f 347/472/347 318/473/318 319/471/319 342/470/342
f 334/474/334 326/475/326 329/476/329 337/477/337
f 335/478/335 327/479/327 330/480/330 338/481/338
f 336/482/336 328/483/328 331/484/331 339/485/339
f 337/477/337 329/476/329 332/486/332 340/487/340
f 340/487/340 332/486/332 333/488/333 341/489/341
f 338/481/338 330/480/330 326/490/326 334/491/334
f 339/485/339 331/484/331 327/479/327 335/478/335
f 341/492/341 333/493/333 328/483/328 336/482/336
f 303/431/303 341/492/341 336/482/336 302/426/302
f 304/423/304 339/485/339 335/478/335 309/433/309
f 305/434/305 338/481/338 334/491/334 307/435/307
f 306/430/306 340/487/340 341/489/341 303/432/303
f 308/429/308 337/477/337 340/487/340 306/430/306
f 302/426/302 336/482/336 339/485/339 304/423/304
f 309/433/309 335/478/335 338/481/338 305/434/305
f 307/428/307 334/474/334 337/477/337 308/429/308
f 326/475/326 347/472/347 342/470/342 329/476/329
f 327/479/327 348/461/348 343/462/343 330/480/330
f 328/483/328 349/457/349 344/458/344 331/484/331
f 329/476/329 342/470/342 345/466/345 332/486/332
f 332/486/332 345/466/345 346/469/346 333/488/333
f 330/480/330 343/462/343 347/465/347 326/490/326
f 331/484/331 344/458/344 348/461/348 327/479/327
f 333/493/333 346/454/346 349/457/349 328/483/328
f 365/494/365 354/495/354 357/496/357 360/497/360
f 363/498/363 352/499/352 356/500/356 359/501/359
f 362/502/362 351/503/351 355/504/355 358/505/358
f 364/506/364 353/507/353 354/508/354 365/509/365
f 361/510/361 350/511/350 353/507/353 364/506/364
f 360/497/360 357/496/357 352/499/352 363/498/363
f 359/501/359 356/500/356 351/503/351 362/502/362
f 358/512/358 355/513/355 350/511/350 361/510/361
f 318/473/318 358/512/358 361/510/361 319/471/319
f 320/460/320 359/501/359 362/502/362 321/463/321
f 322/456/322 360/497/360 363/498/363 323/459/323
f 319/471/319 361/510/361 364/506/364 324/467/324
f 324/467/324 364/506/364 365/509/365 325/468/325
f 321/463/321 362/502/362 358/505/358 318/464/318
f 323/459/323 363/498/363 359/501/359 320/460/320
f 325/455/325 365/494/365 360/497/360 322/456/322
f 354/495/354 370/514/370 373/515/373 357/496/357
f 352/499/352 368/516/368 372/517/372 356/500/356
f 351/503/351 367/518/367 371/519/371 355/504/355
f 353/507/353 369/520/369 370/521/370 354/508/354
f 350/511/350 366/522/366 369/520/369 353/507/353
f 357/496/357 373/515/373 368/516/368 352/499/352
f 356/500/356 372/517/372 367/518/367 351/503/351
f 355/513/355 371/523/371 366/522/366 350/511/350
f 315/437/315 377/524/377 378/525/378 316/438/316
f 311/452/311 375/526/375 374/527/374 310/445/310
f 314/451/314 376/528/376 375/526/375 311/452/311
f 316/438/316 378/525/378 376/529/376 314/448/314
f 375/530/375 376/531/376 378/532/378
f 374/533/374 375/530/375 378/532/378 377/534/377
f 377/534/377 380/535/380 379/536/379 374/533/374
f 315/437/315 313/442/313 380/537/380 377/524/377
f 312/446/312 310/445/310 374/527/374 379/538/379
f 312/446/312 381/539/381 383/540/383 317/441/317
f 317/441/317 383/540/383 382/541/382 313/442/313
f 381/539/381 384/542/384 386/543/386 383/540/383
f 383/540/383 386/543/386 385/544/385 382/541/382
f 380/537/380 313/442/313 382/541/382 385/544/385
f 312/446/312 379/538/379 384/542/384 381/539/381
f 386/545/386 384/546/384 385/547/385
f 380/535/380 385/547/385 384/546/384 379/536/379
f 279/395/279 283/398/283 389/383/389 387/548/387
f 281/404/281 5/31/5 131/10/131 388/384/388
f 7/26/7 279/403/279 387/387/387 130/5/130
f 283/398/283 281/404/281 388/384/388 389/383/389
f 414/549/414 428/550/428 426/551/426 418/552/418
f 415/553/415 429/554/429 427/555/427 419/556/419
f 476/557/476 390/558/390 391/559/391 474/560/474
f 477/561/477 394/562/394 392/392/392 475/391/475
f 473/563/473 395/564/395 390/558/390 476/557/476
f 472/415/472 393/414/393 394/562/394 477/561/477
f 448/565/448 396/566/396 401/567/401 447/568/447
f 449/569/449 398/570/398 400/571/400 446/572/446
f 447/568/447 401/567/401 399/573/399 445/574/445
f 446/575/446 400/576/400 397/577/397 444/578/444
f 444/578/444 397/577/397 396/579/396 448/580/448
f 445/574/445 399/573/399 398/570/398 449/569/449
f 442/581/442 402/582/402 407/583/407 441/584/441
f 443/585/443 403/586/403 406/587/406 440/588/440
f 441/584/441 407/583/407 405/589/405 439/590/439
f 440/591/440 406/592/406 404/593/404 438/594/438
f 438/594/438 404/593/404 402/595/402 442/596/442
f 439/590/439 405/589/405 403/586/403 443/585/443
f 426/597/426 408/598/408 413/599/413 431/600/431
f 427/555/427 409/601/409 412/602/412 430/603/430
f 431/600/431 413/599/413 411/604/411 429/554/429
f 430/605/430 412/606/412 410/607/410 428/550/428
f 428/550/428 410/607/410 408/608/408 426/551/426
f 429/554/429 411/604/411 409/601/409 427/555/427
f 405/589/405 415/553/415 419/556/419 403/586/403
f 404/593/404 414/549/414 418/552/418 402/595/402
f 406/592/406 416/609/416 414/549/414 404/593/404
f 407/583/407 417/610/417 415/553/415 405/589/405
f 403/586/403 419/556/419 416/611/416 406/587/406
f 402/582/402 418/612/418 417/610/417 407/583/407
f 436/613/436 420/614/420 425/615/425 435/616/435
f 437/617/437 421/618/421 424/619/424 434/620/434
f 435/616/435 425/615/425 423/621/423 433/622/433
f 434/623/434 424/624/424 422/625/422 432/626/432
f 432/626/432 422/625/422 420/627/420 436/628/436
f 433/622/433 423/621/423 421/618/421 437/617/437
f 416/609/416 430/605/430 428/550/428 414/549/414
f 417/610/417 431/600/431 429/554/429 415/553/415
f 419/556/419 427/555/427 430/603/430 416/611/416
f 418/612/418 426/597/426 431/600/431 417/610/417
f 411/604/411 433/622/433 437/617/437 409/601/409
f 410/607/410 432/626/432 436/628/436 408/608/408
f 412/606/412 434/623/434 432/626/432 410/607/410
f 413/599/413 435/616/435 433/622/433 411/604/411
f 409/601/409 437/617/437 434/620/434 412/602/412
f 408/598/408 436/613/436 435/616/435 413/599/413
f 399/573/399 439/590/439 443/585/443 398/570/398
f 397/577/397 438/594/438 442/596/442 396/579/396
f 400/576/400 440/591/440 438/594/438 397/577/397
f 401/567/401 441/584/441 439/590/439 399/573/399
f 398/570/398 443/585/443 440/588/440 400/571/400
f 396/566/396 442/581/442 441/584/441 401/567/401
f 284/386/284 445/574/445 449/569/449 389/383/389
f 280/388/280 444/578/444 448/580/448 291/389/291
f 387/387/387 446/575/446 444/578/444 280/388/280
f 288/409/288 447/568/447 445/574/445 284/386/284
f 389/383/389 449/569/449 446/572/446 387/548/387
f 291/411/291 448/565/448 447/568/447 288/409/288
f 453/629/453 458/630/458 459/631/459 454/632/454
f 453/633/453 451/410/451 289/405/289 450/408/450
f 290/634/290 455/390/455 454/635/454 197/636/197
f 455/390/455 291/389/291 451/637/451
f 451/637/451 453/638/453 454/635/454 455/390/455
f 455/390/455 290/634/290 8/6/8
f 454/632/454 459/631/459 202/280/202 197/279/197
f 450/639/450 457/640/457 458/641/458 453/642/453
f 452/643/452 456/644/456 457/640/457 450/639/450
f 394/562/394 462/645/462 460/646/460 479/647/479 392/392/392
f 393/414/393 461/648/461 462/645/462 394/562/394
f 462/645/462 465/649/465 463/650/463 460/646/460
f 461/648/461 464/651/464 465/649/465 462/645/462
f 395/564/395 478/652/478 468/653/468 466/654/466 390/558/390
f 390/558/390 466/654/466 467/655/467 391/559/391
f 468/653/468 471/656/471 469/657/469 466/654/466
f 466/654/466 469/657/469 470/658/470 467/655/467
f 420/614/420 472/659/472 477/660/477 425/615/425
f 421/618/421 473/661/473 476/662/476 424/619/424
f 425/615/425 477/660/477 475/663/475 423/621/423
f 424/624/424 476/664/476 474/665/474 422/625/422
f 422/625/422 474/665/474 472/666/472 420/627/420
f 423/621/423 475/663/475 473/661/473 421/618/421
f 391/413/391 467/667/467 461/648/461 393/414/393
f 464/651/464 461/648/461 467/667/467 470/668/470
f 464/651/464 470/668/470 469/669/469 465/649/465
f 463/650/463 465/649/465 469/669/469 471/670/471
f 460/646/460 463/650/463 471/670/471 468/671/468
f 392/392/392 480/672/480 481/673/481 395/393/395
f 479/647/479 460/646/460 468/671/468 478/674/478
f 483/675/483 487/676/487 484/677/484 480/672/480
f 479/647/479 483/675/483 480/672/480 392/392/392
f 395/564/395 481/678/481 482/679/482 478/652/478
f 478/674/478 482/680/482 483/675/483 479/647/479
f 485/681/485 484/677/484 487/676/487 486/682/486
f 480/672/480 484/677/484 485/681/485 481/673/481
f 482/680/482 486/682/486 487/676/487 483/675/483
f 481/678/481 485/683/485 486/684/486 482/679/482
f 508/685/508 512/686/512 493/687/493 488/688/488
f 512/689/512 509/690/509 490/691/490 493/692/493
f 515/693/515 517/694/517 494/695/494 496/696/496
f 517/694/517 516/697/516 244/339/244 494/695/494
f 509/690/509 268/342/268 241/341/241 490/691/490
f 271/343/271 508/685/508 488/688/488 242/344/242
f 241/341/241 246/345/246 493/692/493 490/691/490
f 246/346/246 242/344/242 488/688/488 493/687/493
f 255/347/255 248/350/248 497/698/497 505/699/505
f 505/699/505 497/698/497 491/700/491 500/701/500
f 248/350/248 202/280/202 459/631/459 497/698/497
f 497/698/497 459/631/459 458/630/458 491/700/491
f 491/702/491 458/641/458 457/640/457 489/703/489
f 489/703/489 457/640/457 456/644/456 495/704/495
f 518/705/518 504/706/504 501/707/501 515/708/515
f 504/706/504 505/699/505 500/701/500 501/707/501
f 276/360/276 256/361/256 504/706/504 518/705/518
f 256/361/256 255/347/255 505/699/505 504/706/504
f 489/703/489 495/704/495 502/709/502 499/710/499
f 499/710/499 502/709/502 503/711/503 498/712/498
f 491/702/491 489/703/489 499/710/499 500/713/500
f 500/713/500 499/710/499 498/712/498 501/714/501
f 245/368/245 492/715/492 506/716/506 273/369/273
f 273/369/273 506/716/506 507/717/507 272/372/272
f 272/372/272 507/717/507 508/685/508 271/343/271
f 494/695/494 244/339/244 270/375/270 511/718/511
f 511/718/511 270/375/270 269/377/269 510/719/510
f 510/719/510 269/377/269 268/342/268 509/690/509
f 496/696/496 494/695/494 511/718/511 514/720/514
f 514/720/514 511/718/511 510/719/510 513/721/513
f 513/721/513 510/719/510 509/690/509 512/689/512
f 492/715/492 496/722/496 514/723/514 506/716/506
f 506/716/506 514/723/514 513/724/513 507/717/507
f 507/717/507 513/724/513 512/686/512 508/685/508
f 245/368/245 276/360/276 518/705/518 492/715/492
f 492/715/492 518/705/518 515/708/515 496/722/496
f 498/712/498 503/711/503 516/697/516 517/694/517
f 501/714/501 498/712/498 517/694/517 515/693/515
